<svg id="Layer_1" data-name="Layer 1" xmlns="http://www.w3.org/2000/svg" xmlns:xlink="http://www.w3.org/1999/xlink" viewBox="0 0 234 90"><defs><style>.cls-1{fill:url(#New_Gradient_Swatch_14);}.cls-2{fill:url(#New_Gradient_Swatch_14-2);}.cls-3{fill:url(#New_Gradient_Swatch_14-3);}.cls-4{fill:url(#New_Gradient_Swatch_14-4);}.cls-5{fill:url(#New_Gradient_Swatch_14-5);}.cls-6{fill:url(#New_Gradient_Swatch_14-6);}.cls-7{fill:url(#New_Gradient_Swatch_14-7);}.cls-8{fill:url(#New_Gradient_Swatch_14-8);}.cls-9{fill:url(#linear-gradient);}.cls-10{fill:#2e3384;}</style><linearGradient id="New_Gradient_Swatch_14" x1="92.58" y1="65.1" x2="92.58" y2="9.07" gradientUnits="userSpaceOnUse"><stop offset="0" stop-color="#33bbed"/><stop offset="1" stop-color="#3777bc"/></linearGradient><linearGradient id="New_Gradient_Swatch_14-2" x1="112.69" y1="65.1" x2="112.69" y2="9.07" xlink:href="#New_Gradient_Swatch_14"/><linearGradient id="New_Gradient_Swatch_14-3" x1="139.48" y1="65.1" x2="139.48" y2="9.07" xlink:href="#New_Gradient_Swatch_14"/><linearGradient id="New_Gradient_Swatch_14-4" x1="164.72" y1="65.1" x2="164.72" y2="9.07" xlink:href="#New_Gradient_Swatch_14"/><linearGradient id="New_Gradient_Swatch_14-5" x1="191.75" y1="65.1" x2="191.75" y2="9.07" xlink:href="#New_Gradient_Swatch_14"/><linearGradient id="New_Gradient_Swatch_14-6" x1="217.04" y1="65.1" x2="217.04" y2="9.07" xlink:href="#New_Gradient_Swatch_14"/><linearGradient id="New_Gradient_Swatch_14-7" x1="68.87" y1="55.73" x2="68.87" y2="8.82" xlink:href="#New_Gradient_Swatch_14"/><linearGradient id="New_Gradient_Swatch_14-8" x1="55.21" y1="55.73" x2="55.21" y2="8.82" xlink:href="#New_Gradient_Swatch_14"/><linearGradient id="linear-gradient" x1="24.57" y1="55.98" x2="24.57" y2="20.24" gradientUnits="userSpaceOnUse"><stop offset="0" stop-color="#2e3384"/><stop offset="1" stop-color="#a28bbb"/></linearGradient></defs><path class="cls-1" d="M90.18,23.32a2.05,2.05,0,0,1,.68-1.68,2.93,2.93,0,0,1,1.89-.55,5.08,5.08,0,0,1,1.39.19c.42.13.7.22.84.28V52.09h-4.8Z"/><path class="cls-2" d="M102.43,33.21a2,2,0,0,1,.67-1.71A3,3,0,0,1,105,31a4.67,4.67,0,0,1,1.39.19,8.56,8.56,0,0,1,.84.27V42.5a6.26,6.26,0,0,0,1.35,4.35,6.41,6.41,0,0,0,8.24,0,6.26,6.26,0,0,0,1.34-4.35V33.21a2,2,0,0,1,.68-1.71,2.93,2.93,0,0,1,1.85-.52,4.85,4.85,0,0,1,1.43.19,8.56,8.56,0,0,1,.84.27V43.55a9.65,9.65,0,0,1-.74,3.85,7.78,7.78,0,0,1-2.1,2.88,9.28,9.28,0,0,1-3.26,1.79,14.52,14.52,0,0,1-8.33,0,9,9,0,0,1-3.23-1.79,8.15,8.15,0,0,1-2.11-2.88,9.48,9.48,0,0,1-.75-3.85Z"/><path class="cls-3" d="M148.92,50.53c-.22.14-.57.34-1,.59a11.42,11.42,0,0,1-1.79.72,21.2,21.2,0,0,1-2.48.59,18.41,18.41,0,0,1-3.09.25,13.14,13.14,0,0,1-4.4-.72,10,10,0,0,1-6-5.57,11.68,11.68,0,0,1-.88-4.69,12,12,0,0,1,.86-4.6,10.59,10.59,0,0,1,2.4-3.58,11,11,0,0,1,3.61-2.31,12.3,12.3,0,0,1,4.57-.82,12,12,0,0,1,3.87.57,8.92,8.92,0,0,1,2.84,1.51,6.23,6.23,0,0,1,1.74,2.21,6.59,6.59,0,0,1,0,5.36,4.79,4.79,0,0,1-1.93,2.06,11.62,11.62,0,0,1-3.74,1.35,30.75,30.75,0,0,1-6,.48l-1.57,0-1.58-.06a5.24,5.24,0,0,0,2.08,3.47,8.15,8.15,0,0,0,5,1.32,11.42,11.42,0,0,0,2-.17,10.84,10.84,0,0,0,1.66-.42,11.24,11.24,0,0,0,1.27-.5l.77-.38Zm-14.76-10c.64,0,1.26,0,1.85,0h1.77a18.83,18.83,0,0,0,3.74-.3,7.4,7.4,0,0,0,2.23-.75,2.4,2.4,0,0,0,1.05-1.05,3.06,3.06,0,0,0,.25-1.22,2.64,2.64,0,0,0-1.28-2.4,5.93,5.93,0,0,0-3.18-.8,6.37,6.37,0,0,0-2.73.55,5.81,5.81,0,0,0-2,1.45,6.68,6.68,0,0,0-1.24,2.08A7.65,7.65,0,0,0,134.16,40.57Z"/><path class="cls-4" d="M156.36,46.83a6.54,6.54,0,0,0,1,.55,19.56,19.56,0,0,0,4.41,1.3,17.85,17.85,0,0,0,3.12.25,9.55,9.55,0,0,0,3.57-.56,2,2,0,0,0,1.39-2,2.05,2.05,0,0,0-.89-1.79,7.43,7.43,0,0,0-3.15-.86l-3.28-.38a15,15,0,0,1-3.09-.61,7.93,7.93,0,0,1-2.42-1.19,5.41,5.41,0,0,1-1.58-1.88,5.78,5.78,0,0,1-.56-2.67,6.28,6.28,0,0,1,.52-2.54,5.67,5.67,0,0,1,1.66-2.12,8.41,8.41,0,0,1,3-1.46,16.27,16.27,0,0,1,4.43-.52,18.85,18.85,0,0,1,6.8,1c1.61.64,2.41,1.48,2.41,2.52a1.87,1.87,0,0,1-.19.88,3.18,3.18,0,0,1-.42.67,2.49,2.49,0,0,1-.48.49,1.79,1.79,0,0,1-.38.23,4.78,4.78,0,0,0-.73-.53,9.13,9.13,0,0,0-1.54-.71,15.07,15.07,0,0,0-2.31-.63,16,16,0,0,0-3.11-.27c-3.26,0-4.88.85-4.88,2.56a1.84,1.84,0,0,0,.92,1.66,6.67,6.67,0,0,0,2.65.78l4.29.55A11.49,11.49,0,0,1,173,41.47a5,5,0,0,1,1.93,4.27,6,6,0,0,1-2.5,5q-2.51,1.89-7.21,1.89a22.5,22.5,0,0,1-4.12-.34,23.46,23.46,0,0,1-3.22-.78,15.79,15.79,0,0,1-2.21-.86,6.74,6.74,0,0,1-1.09-.63Z"/><path class="cls-5" d="M181.25,23.32a2.05,2.05,0,0,1,.68-1.68,2.92,2.92,0,0,1,1.89-.55,5.13,5.13,0,0,1,1.39.19c.42.13.7.22.84.28V38.74c.36-.25.87-.63,1.53-1.11L189.79,36c.81-.58,1.65-1.2,2.52-1.84s1.7-1.25,2.48-1.8a10.79,10.79,0,0,1,1.69-1,4.76,4.76,0,0,1,2-.35,3.1,3.1,0,0,1,1.94.61,3.48,3.48,0,0,1,1,1c-.59.53-1.4,1.18-2.42,2s-2.07,1.54-3.13,2.3-2.08,1.49-3,2.14-1.64,1.14-2.06,1.45a51.63,51.63,0,0,1,6.52,5.75,60.68,60.68,0,0,1,5,5.88h-6c-.65-.79-1.37-1.61-2.17-2.47s-1.65-1.7-2.57-2.53-1.83-1.63-2.77-2.4-1.84-1.48-2.71-2.13v9.53h-4.8Z"/><path class="cls-6" d="M206.78,33.21a2.05,2.05,0,0,1,.67-1.69A2.87,2.87,0,0,1,209.3,31a5,5,0,0,1,1.41.19,8.6,8.6,0,0,1,.86.27V42.67a5.7,5.7,0,0,0,1.32,3.95,5.26,5.26,0,0,0,4.1,1.47,5.4,5.4,0,0,0,4-1.49,6,6,0,0,0,1.47-4.39v-9a2.06,2.06,0,0,1,.68-1.69A2.85,2.85,0,0,1,225,31a5,5,0,0,1,1.41.19,8.6,8.6,0,0,1,.86.27V49.86a14.27,14.27,0,0,1-.8,5.07,8.74,8.74,0,0,1-2.27,3.42,8.91,8.91,0,0,1-3.53,2,16.08,16.08,0,0,1-4.59.61,23.39,23.39,0,0,1-3.15-.19c-1-.13-1.81-.27-2.55-.44s-1.35-.33-1.83-.48l-1-.36c.23-.59.44-1.19.63-1.79s.4-1.2.59-1.79c.2.09.51.2.93.34a15.21,15.21,0,0,0,1.51.4c.59.13,1.26.23,2,.32a22.28,22.28,0,0,0,2.38.12,11.06,11.06,0,0,0,2.94-.36,4.93,4.93,0,0,0,2.21-1.24,5.82,5.82,0,0,0,1.39-2.33,11.76,11.76,0,0,0,.48-3.64,5.76,5.76,0,0,1-2.63,2,10.22,10.22,0,0,1-3.93.73,12.12,12.12,0,0,1-3.74-.56,8.54,8.54,0,0,1-3-1.64,7.48,7.48,0,0,1-1.91-2.68,9.1,9.1,0,0,1-.69-3.65Z"/><path class="cls-7" d="M73.58,36.63a6.77,6.77,0,0,0-7.36-1.43,6.15,6.15,0,0,0-2,1.45,7.1,7.1,0,0,0-1.33,2.19,7.51,7.51,0,0,0-.48,2.69,7.76,7.76,0,0,0,.48,2.78,6.16,6.16,0,0,0,1.35,2.14,6,6,0,0,0,2.06,1.39,6.63,6.63,0,0,0,2.63.51,6.5,6.5,0,0,0,2.63-.53,6.4,6.4,0,0,0,2.06-1.43,6.32,6.32,0,0,0,1.32-2.14,7.69,7.69,0,0,0,.46-2.72,7.82,7.82,0,0,0-.46-2.73A6.36,6.36,0,0,0,73.58,36.63Z"/><path class="cls-8" d="M69.46,26.88c-.21,0-.41,0-.62,0A24.09,24.09,0,0,0,26.51,16.54a21.46,21.46,0,0,1,10,39.24h33a14.45,14.45,0,1,0,0-28.9ZM79.49,46a10.33,10.33,0,0,1-2.36,3.53,10.88,10.88,0,0,1-3.6,2.32,12,12,0,0,1-4.56.84,13.14,13.14,0,0,1-4.56-.76,9.64,9.64,0,0,1-3.6-2.27,10.33,10.33,0,0,1-2.35-3.78,15.45,15.45,0,0,1-.84-5.35V23.32a2,2,0,0,1,.67-1.68,3,3,0,0,1,1.89-.54,5,5,0,0,1,1.39.18c.42.13.7.22.84.28V33.63a8.5,8.5,0,0,1,2.9-2.29,9.11,9.11,0,0,1,4.25-.95,10.87,10.87,0,0,1,4.27.82,10.4,10.4,0,0,1,3.41,2.31,11.09,11.09,0,0,1,2.27,3.53,12.06,12.06,0,0,1,.82,4.48A11.69,11.69,0,0,1,79.49,46Z"/><path class="cls-9" d="M24.57,20A17.87,17.87,0,1,0,42.44,37.91,17.87,17.87,0,0,0,24.57,20Zm-.06,29.22A11.34,11.34,0,0,1,23.7,26.6,11.34,11.34,0,0,0,32.6,45c.27,0,.54,0,.81,0A11.32,11.32,0,0,1,24.51,49.26Z"/><path class="cls-10" d="M13.46,64.77a1.14,1.14,0,0,1,.32-.89,1.34,1.34,0,0,1,.88-.27,2,2,0,0,1,.67.1,2.91,2.91,0,0,1,.41.14v2.88h2.9a1.21,1.21,0,0,1,.93.3,1.26,1.26,0,0,1,.27.87,2.17,2.17,0,0,1-.1.69,3.44,3.44,0,0,1-.16.45H15.74V74a2.68,2.68,0,0,0,.14.93,1.69,1.69,0,0,0,.39.59,1.53,1.53,0,0,0,.58.3,2.61,2.61,0,0,0,.69.09,2.73,2.73,0,0,0,1.08-.2,2.59,2.59,0,0,0,.72-.37L20.26,77a3.79,3.79,0,0,1-.45.33,4.2,4.2,0,0,1-.71.38,6.54,6.54,0,0,1-.94.29,5,5,0,0,1-1.14.12,3.39,3.39,0,0,1-2.66-1,3.76,3.76,0,0,1-.9-2.63Z"/><path class="cls-10" d="M23.46,61.78a1.27,1.27,0,0,1,1,.44,1.66,1.66,0,0,1,0,2.16,1.27,1.27,0,0,1-1,.44,1.3,1.3,0,0,1-1-.44,1.66,1.66,0,0,1,0-2.16A1.3,1.3,0,0,1,23.46,61.78ZM22.32,67.9a1.12,1.12,0,0,1,.32-.89,1.33,1.33,0,0,1,.9-.28,2,2,0,0,1,.66.1l.4.14V77.78H22.32Z"/><path class="cls-10" d="M27.87,62.73a1.13,1.13,0,0,1,.32-.88,1.3,1.3,0,0,1,.9-.29,2,2,0,0,1,.66.1l.4.14v16H27.87Z"/><path class="cls-10" d="M42.25,77a5.42,5.42,0,0,1-.5.31,4.59,4.59,0,0,1-.85.37,8.69,8.69,0,0,1-1.18.31,7.52,7.52,0,0,1-1.47.13,5.74,5.74,0,0,1-2.09-.37,4.82,4.82,0,0,1-1.7-1.11,5.15,5.15,0,0,1-1.15-1.81,6.62,6.62,0,0,1-.42-2.45,6.89,6.89,0,0,1,.41-2.41,5.53,5.53,0,0,1,1.14-1.87,5.21,5.21,0,0,1,1.72-1.21,5.49,5.49,0,0,1,2.17-.43,5.22,5.22,0,0,1,1.84.3,4.26,4.26,0,0,1,1.35.79,3.26,3.26,0,0,1,.83,1.16,3.51,3.51,0,0,1,.28,1.41,3.66,3.66,0,0,1-.26,1.39,2.42,2.42,0,0,1-.92,1.08,5,5,0,0,1-1.78.7,13.08,13.08,0,0,1-2.84.26h-.75l-.75,0a2.82,2.82,0,0,0,1,1.82,3.6,3.6,0,0,0,2.37.69,4.75,4.75,0,0,0,1-.09,4.11,4.11,0,0,0,.79-.22,4.31,4.31,0,0,0,.6-.26l.37-.2Zm-7-5.21.88,0H37a8.55,8.55,0,0,0,1.78-.15,3.62,3.62,0,0,0,1.06-.4,1.18,1.18,0,0,0,.5-.55,1.77,1.77,0,0,0,.12-.64,1.4,1.4,0,0,0-.61-1.25,2.61,2.61,0,0,0-1.51-.42,2.83,2.83,0,0,0-1.3.29,2.89,2.89,0,0,0-.94.75,3.69,3.69,0,0,0-.59,1.09A4.18,4.18,0,0,0,35.23,71.75Z"/><path class="cls-10" d="M53.18,62.73a1.12,1.12,0,0,1,.31-.88,1.27,1.27,0,0,1,.89-.29,2,2,0,0,1,.66.1l.4.14v9.93A8.63,8.63,0,0,1,55,74.52a5.62,5.62,0,0,1-1.13,2,4.68,4.68,0,0,1-1.7,1.19,5.74,5.74,0,0,1-2.14.39,5.17,5.17,0,0,1-2.17-.44,5.07,5.07,0,0,1-1.71-1.21,5.53,5.53,0,0,1-1.13-1.84,6.61,6.61,0,0,1-.41-2.34A6.76,6.76,0,0,1,45,69.91a5.74,5.74,0,0,1,1.08-1.85,4.77,4.77,0,0,1,3.65-1.64,4.17,4.17,0,0,1,3.42,1.7Zm0,9.52a4.28,4.28,0,0,0-.23-1.4,3.55,3.55,0,0,0-.63-1.15,3,3,0,0,0-1-.76,2.89,2.89,0,0,0-1.25-.27,2.84,2.84,0,0,0-1.26.27,3.24,3.24,0,0,0-1,.75,3.45,3.45,0,0,0-.63,1.13A4.42,4.42,0,0,0,47,72.25a4.27,4.27,0,0,0,.22,1.42,3.4,3.4,0,0,0,.63,1.12,3,3,0,0,0,1,.75,2.72,2.72,0,0,0,1.26.28,2.89,2.89,0,0,0,1.25-.27,2.77,2.77,0,0,0,1-.72A3.3,3.3,0,0,0,53,73.71,4.52,4.52,0,0,0,53.18,72.25Z"/></svg>